<?xml version="1.0" standalone="no"?>
<!DOCTYPE svg PUBLIC "-//W3C//DTD SVG 20010904//EN"
 "http://www.w3.org/TR/2001/REC-SVG-20010904/DTD/svg10.dtd">
<svg version="1.0" xmlns="http://www.w3.org/2000/svg"
 width="602.000000pt" height="384.000000pt" viewBox="0 0 602.000000 384.000000"
 preserveAspectRatio="xMidYMid meet">

<g transform="translate(0.000000,384.000000) scale(0.100000,-0.100000)"
fill="#000000" stroke="none">
<path d="M490 3418 c1 -365 2 -411 15 -394 13 17 15 81 15 398 l0 378 715 0
715 0 0 -276 0 -276 -22 7 c-47 14 -143 17 -197 5 -53 -11 -181 -72 -228 -108
l-22 -17 17 -69 18 -70 59 -13 c33 -8 137 -31 230 -52 l170 -38 3 456 c1 251
0 462 -3 469 -3 9 -162 12 -745 12 l-740 0 0 -412z"/>
<path d="M2940 3645 l0 -125 130 0 130 0 0 -590 0 -590 125 0 125 0 2 588 3
587 153 3 152 3 0 -591 0 -590 405 0 405 0 2 588 3 587 153 3 152 3 0 -591 0
-590 125 0 125 0 2 588 3 587 153 3 152 3 0 -591 0 -590 125 0 125 0 0 715 0
715 -685 0 -685 0 0 -590 0 -590 -155 0 -155 0 0 590 0 590 -535 0 -535 0 0
-125z"/>
<path d="M1308 3393 c6 -2 18 -2 25 0 6 3 1 5 -13 5 -14 0 -19 -2 -12 -5z"/>
<path d="M1120 3381 c-19 -5 -7 -9 50 -18 55 -9 79 -9 94 0 19 10 18 12 -19
18 -49 9 -92 9 -125 0z"/>
<path d="M1428 3373 c6 -2 18 -2 25 0 6 3 1 5 -13 5 -14 0 -19 -2 -12 -5z"/>
<path d="M1005 3342 l-40 -19 30 -6 c92 -19 122 -19 160 1 l38 19 -54 7 c-30
4 -63 9 -74 12 -11 2 -38 -4 -60 -14z"/>
<path d="M1316 3351 c-14 -5 1 -11 53 -19 56 -10 76 -10 94 0 21 12 19 13 -23
19 -58 10 -100 9 -124 0z"/>
<path d="M1516 3327 c-27 -12 -25 -13 53 -24 48 -7 90 -9 104 -4 l22 9 -25 5
c-14 3 -42 9 -63 12 -21 3 -44 8 -50 10 -7 2 -25 -1 -41 -8z"/>
<path d="M1708 3333 c7 -3 16 -2 19 1 4 3 -2 6 -13 5 -11 0 -14 -3 -6 -6z"/>
<path d="M1200 3307 l-45 -20 80 -13 c76 -12 81 -12 118 9 l39 22 -48 7 c-27
4 -60 9 -74 11 -14 3 -45 -4 -70 -16z"/>
<path d="M876 3272 c-32 -19 -54 -38 -49 -42 4 -4 35 -12 68 -18 59 -10 61 -9
123 28 l64 39 -39 6 c-21 4 -54 11 -74 15 -31 6 -44 2 -93 -28z"/>
<path d="M1396 3277 l-40 -21 55 -12 c77 -18 104 -17 152 8 l42 22 -75 12
c-95 16 -88 16 -134 -9z"/>
<path d="M1065 3234 c-33 -19 -61 -37 -63 -38 -1 -2 34 -10 79 -19 l81 -17 59
42 60 43 -68 11 c-37 7 -73 13 -79 13 -5 1 -37 -15 -69 -35z"/>
<path d="M1267 3198 c-32 -22 -57 -42 -55 -44 3 -2 38 -10 79 -18 l74 -14 53
36 c30 20 55 39 58 43 2 4 -29 13 -68 19 -40 7 -75 14 -78 15 -3 2 -31 -15
-63 -37z"/>
<path d="M715 3162 l-59 -47 44 -6 c25 -3 61 -9 81 -13 32 -7 40 -4 83 33 25
22 48 44 49 47 2 9 -31 19 -93 27 -43 6 -49 3 -105 -41z"/>
<path d="M912 3127 l-52 -42 40 -12 c81 -24 123 -26 145 -6 11 10 35 30 53 46
36 29 37 28 -46 46 -77 16 -82 15 -140 -32z"/>
<path d="M1113 3086 l-52 -43 75 -17 c41 -9 82 -16 92 -16 9 1 38 20 65 45
l47 43 -69 16 c-39 9 -78 16 -88 16 -10 0 -41 -20 -70 -44z"/>
<path d="M577 3032 l-57 -58 58 -12 c32 -7 66 -12 75 -12 20 0 133 105 121
113 -8 4 -118 27 -134 27 -3 0 -31 -26 -63 -58z"/>
<path d="M757 2992 l-57 -58 84 -17 85 -18 61 61 c34 34 60 63 58 65 -5 4
-132 25 -154 25 -11 0 -45 -26 -77 -58z"/>
<path d="M966 2951 c-56 -57 -58 -60 -35 -65 13 -3 54 -12 90 -21 l67 -16 55
58 c30 32 56 63 56 68 0 10 -101 33 -149 34 -18 1 -42 -16 -84 -58z"/>
<path d="M429 2877 l-61 -71 68 -16 69 -16 60 64 c33 36 61 68 63 72 3 7 -16
12 -100 30 -37 7 -38 6 -99 -63z"/>
<path d="M611 2839 c-50 -55 -61 -73 -50 -80 8 -5 21 -9 29 -9 9 0 39 -6 68
-13 l51 -14 66 73 c72 80 72 79 -20 94 -27 5 -57 11 -65 14 -10 4 -37 -18 -79
-65z"/>
<path d="M852 2832 c-12 -15 -40 -48 -62 -74 l-40 -46 92 -21 c74 -17 94 -19
103 -9 83 94 115 138 103 142 -20 7 -160 36 -167 35 -3 0 -16 -12 -29 -27z"/>
<path d="M320 2752 c-8 -9 -36 -42 -63 -73 l-47 -57 71 -17 c60 -15 73 -15 83
-4 7 8 36 42 64 76 l53 61 -55 16 c-69 20 -88 20 -106 -2z"/>
<path d="M451 2653 l-63 -77 49 -14 c127 -35 116 -38 179 43 31 40 57 77 56
81 -1 8 -121 43 -148 44 -6 0 -39 -35 -73 -77z"/>
<path d="M661 2600 l-62 -79 53 -15 c29 -8 70 -19 90 -24 l37 -10 56 70 c71
89 74 96 38 103 -15 4 -51 13 -80 21 -28 8 -55 14 -61 14 -5 0 -37 -36 -71
-80z"/>
<path d="M121 2513 l-63 -77 68 -23 c37 -13 71 -23 74 -23 8 0 120 148 120
159 0 4 -26 14 -57 21 -32 7 -63 14 -69 17 -5 2 -38 -31 -73 -74z"/>
<path d="M304 2464 c-31 -42 -52 -80 -48 -84 10 -9 155 -53 158 -48 1 2 28 38
60 81 32 43 56 81 53 83 -4 4 -64 20 -139 38 -25 6 -32 0 -84 -70z"/>
<path d="M533 2428 c-53 -72 -76 -108 -72 -112 2 -2 42 -13 89 -25 l85 -21 20
27 c11 14 37 52 58 82 l39 56 -56 17 c-119 36 -119 36 -163 -24z"/>
<path d="M1042 1774 c-260 -44 -496 -219 -634 -471 -10 -18 -32 -72 -50 -120
-32 -87 -32 -90 -33 -273 0 -178 1 -188 29 -270 69 -207 185 -358 361 -474
187 -123 400 -169 628 -135 86 12 150 32 237 71 84 38 129 68 214 142 89 78
157 169 211 281 69 146 80 195 79 385 0 160 -1 168 -33 260 -54 160 -122 267
-234 373 -209 198 -485 280 -775 231z m386 -54 c91 -27 228 -90 270 -125 187
-154 289 -309 333 -507 58 -259 -4 -515 -176 -731 -45 -56 -171 -159 -245
-199 -80 -43 -203 -84 -301 -99 -206 -32 -456 41 -639 187 -132 105 -219 231
-274 395 -148 440 107 933 552 1068 131 40 121 39 258 40 108 1 133 -2 222
-29z"/>
<path d="M1085 1668 c-2 -7 -5 -52 -7 -101 -3 -73 -1 -87 12 -85 11 2 16 20
18 68 2 36 7 69 12 74 5 5 20 -14 36 -48 33 -70 55 -74 79 -13 31 78 39 78 45
-4 4 -60 8 -74 23 -77 15 -3 17 5 17 66 0 105 -8 132 -37 132 -21 0 -29 -10
-51 -60 -15 -33 -31 -59 -35 -57 -5 1 -19 27 -32 57 -19 44 -28 56 -49 58 -15
2 -28 -2 -31 -10z"/>
<path d="M1605 1469 c-59 -91 -59 -93 -39 -110 14 -11 23 -10 67 14 27 14 54
24 58 21 5 -3 -3 -27 -16 -55 -20 -39 -23 -54 -15 -69 6 -11 13 -20 16 -20 3
0 41 23 85 51 51 33 77 55 71 61 -14 14 -44 2 -89 -33 -46 -37 -55 -22 -24 40
12 22 21 44 21 50 0 20 -31 19 -75 -3 -25 -13 -48 -19 -51 -14 -3 5 10 33 30
63 29 44 33 55 21 65 -11 9 -23 -3 -60 -61z"/>
<path d="M648 1458 c-25 -24 -53 -55 -63 -71 l-17 -27 68 -65 69 -64 62 67
c71 76 85 108 58 129 -11 7 -29 13 -41 13 -17 0 -23 7 -26 28 -2 22 -9 28 -34
30 -25 2 -40 -5 -76 -40z m90 -8 c4 -36 -81 -120 -105 -104 -29 18 -26 32 23
84 51 54 77 60 82 20z m72 -53 c0 -30 -92 -122 -114 -114 -35 14 -29 38 20 88
54 55 94 66 94 26z"/>
<path d="M1094 1415 c-128 -28 -270 -125 -337 -232 -38 -60 -77 -179 -77 -233
l0 -47 53 9 c28 5 144 8 257 6 l205 -2 5 257 5 257 -25 -1 c-14 0 -52 -7 -86
-14z"/>
<path d="M1278 1413 c6 -2 18 -2 25 0 6 3 1 5 -13 5 -14 0 -19 -2 -12 -5z"/>
<path d="M1390 1378 c107 -45 183 -106 241 -196 49 -75 68 -91 27 -23 -38 64
-89 121 -142 159 -52 39 -162 92 -187 92 -8 0 20 -15 61 -32z"/>
<path d="M1687 1077 c3 -16 12 -47 19 -70 l14 -42 -6 40 c-3 22 -12 53 -19 70
l-14 30 6 -28z"/>
<path d="M1710 900 c-8 -6 -121 -10 -257 -10 l-243 0 0 -255 0 -255 25 0 c51
0 133 23 204 58 148 73 258 221 282 380 12 83 10 95 -11 82z"/>
<path d="M695 799 c9 -92 87 -225 175 -297 47 -39 171 -99 220 -107 25 -4 19
0 -20 13 -132 45 -222 109 -284 202 -49 73 -71 122 -86 190 l-9 45 4 -46z"/>
<path d="M4120 1644 c-211 -41 -365 -137 -494 -306 l-28 -38 -535 0 -535 0 52
-50 52 -50 454 0 c357 0 454 -3 453 -12 0 -7 -8 -35 -17 -63 l-17 -50 -370 -5
-370 -5 49 -47 49 -48 311 -2 311 -3 3 -62 3 -63 -246 0 c-135 0 -245 -2 -245
-4 0 -2 20 -25 45 -50 l46 -46 197 0 c108 0 203 -4 209 -8 12 -8 43 -93 43
-119 0 -9 -40 -13 -152 -15 l-151 -3 48 -47 48 -48 136 0 136 0 36 -49 c92
-126 273 -245 418 -276 104 -22 289 -20 383 4 142 37 279 125 381 246 l62 74
133 1 133 0 52 50 52 50 -151 0 c-83 0 -153 2 -156 5 -6 6 22 101 35 123 6 9
59 12 210 12 l201 0 43 42 c24 23 43 46 43 50 0 4 -108 8 -240 8 l-241 0 3 63
3 62 310 3 310 2 48 48 48 47 -372 5 -371 5 -18 57 c-10 31 -15 60 -12 63 3 3
208 5 455 5 l450 0 53 50 53 50 -538 0 -538 0 -34 48 c-90 126 -248 236 -399
278 -54 15 -282 27 -330 18z m337 -132 c179 -66 307 -186 380 -354 102 -236
60 -494 -112 -685 -76 -84 -178 -151 -286 -188 -72 -24 -100 -28 -194 -28 -92
0 -123 4 -190 26 -191 63 -338 197 -414 380 -142 345 47 741 409 855 98 31 97
31 215 28 93 -3 122 -8 192 -34z"/>
<path d="M3730 906 l0 -166 30 0 30 0 0 112 c0 62 4 108 9 102 4 -5 23 -55 42
-111 l33 -103 37 0 c35 0 37 2 56 53 11 28 26 76 33 105 8 28 17 52 22 52 4 0
8 -47 8 -105 l0 -105 33 0 32 0 -3 165 -3 165 -43 0 -43 0 -26 -72 c-14 -40
-33 -99 -42 -131 -9 -32 -20 -56 -23 -52 -4 3 -25 61 -47 128 l-40 122 -47 3
-48 3 0 -165z"/>
<path d="M4180 905 l0 -165 30 0 30 0 0 165 0 165 -30 0 -30 0 0 -165z"/>
<path d="M4330 906 l0 -166 30 0 30 0 0 104 c0 58 3 107 8 110 4 2 34 -45 66
-105 l59 -109 44 0 43 0 0 165 0 165 -36 0 -36 0 4 -110 c2 -70 -1 -109 -7
-107 -5 2 -35 50 -67 108 l-56 104 -41 3 -41 3 0 -165z"/>
<path d="M4690 905 l0 -165 35 0 35 0 0 165 0 165 -35 0 -35 0 0 -165z"/>
</g>
</svg>
